<svg xmlns="http://www.w3.org/2000/svg" viewBox="0 0 60 60">
  <title>icon__qr</title>
  <g>
    <path d="M19,10H11a1,1,0,0,0-1,1v8a1,1,0,0,0,1,1h8a1,1,0,0,0,1-1V11A1,1,0,0,0,19,10Zm-1,8H12V12h6Z" transform="translate(-2 -2)"/>
    <path d="M28,35V31a1,1,0,0,0-1-1H23a1,1,0,0,0-1,1v4a1,1,0,0,0,1,1h4A1,1,0,0,0,28,35Zm-2-1H24V32h2Z" transform="translate(-2 -2)"/>
    <path d="M58,41a1,1,0,0,0-1-1H53a1,1,0,0,0-1,1v4a1,1,0,0,0,1,1h4a1,1,0,0,0,1-1Zm-2,3H54V42h2Z" transform="translate(-2 -2)"/>
    <path d="M35,48a1,1,0,0,0-1,1v8a1,1,0,0,0,1,1h8a1,1,0,0,0,1-1V49a1,1,0,0,0-1-1Zm7,8H36V50h6Z" transform="translate(-2 -2)"/>
    <path d="M6,7V23a1,1,0,0,0,1,1H23a1,1,0,0,0,1-1V7a1,1,0,0,0-1-1H7A1,1,0,0,0,6,7ZM8,8H22V22H8Z" transform="translate(-2 -2)"/>
    <rect x="12" y="12" width="2" height="2"/>
    <path d="M11,54h8a1,1,0,0,0,1-1V45a1,1,0,0,0-1-1H11a1,1,0,0,0-1,1v8A1,1,0,0,0,11,54Zm1-8h6v6H12Z" transform="translate(-2 -2)"/>
    <path d="M24,57V41a1,1,0,0,0-1-1H7a1,1,0,0,0-1,1V57a1,1,0,0,0,1,1H23A1,1,0,0,0,24,57Zm-2-1H8V42H22Z" transform="translate(-2 -2)"/>
    <rect x="12" y="46" width="2" height="2"/>
    <path d="M53,10H45a1,1,0,0,0-1,1v8a1,1,0,0,0,1,1h8a1,1,0,0,0,1-1V11A1,1,0,0,0,53,10Zm-1,8H46V12h6Z" transform="translate(-2 -2)"/>
    <path d="M41,24H57a1,1,0,0,0,1-1V7a1,1,0,0,0-1-1H41a1,1,0,0,0-1,1V23A1,1,0,0,0,41,24ZM42,8H56V22H42Z" transform="translate(-2 -2)"/>
    <rect x="46" y="12" width="2" height="2"/>
    <rect x="50" y="24" width="2" height="2"/>
    <rect x="32" y="24" width="2" height="2"/>
    <rect x="38" y="28" width="2" height="2"/>
    <rect x="28" y="36" width="2" height="2"/>
    <path d="M52,57V50h1V48H51a1,1,0,0,0-1,1v7H46v2h5A1,1,0,0,0,52,57Z" transform="translate(-2 -2)"/>
    <rect x="36" y="50" width="2" height="2"/>
    <rect x="44" y="44" width="2" height="2"/>
    <rect x="24" y="50" width="2" height="2"/>
    <rect x="54" y="24" width="2" height="2"/>
    <path d="M4,4h7V2H3A1,1,0,0,0,2,3v8H4Z" transform="translate(-2 -2)"/>
    <path d="M61,2H53V4h7v7h2V3A1,1,0,0,0,61,2Z" transform="translate(-2 -2)"/>
    <path d="M3,62h8V60H4V53H2v8A1,1,0,0,0,3,62Z" transform="translate(-2 -2)"/>
    <path d="M60,60H53v2h8a1,1,0,0,0,1-1V53H60Z" transform="translate(-2 -2)"/>
    <path d="M28,8h5V6H27a1,1,0,0,0-1,1V20h2Z" transform="translate(-2 -2)"/>
    <path d="M32,23V19h4v5h2V6H36V17H32V15h1a1,1,0,0,0,1-1V10H32v3H31a1,1,0,0,0-1,1v8H26v2h5A1,1,0,0,0,32,23Z" transform="translate(-2 -2)"/>
    <path d="M6,26v7a1,1,0,0,0,1,1h7v4h2V34h2v4h2V33a1,1,0,0,0-1-1H18V28h9V26H11a1,1,0,0,0-1,1v3h2V28h4v4H8V26Z" transform="translate(-2 -2)"/>
    <rect x="5" y="34" width="2" height="2"/>
    <rect x="8" y="34" width="2" height="2"/>
    <path d="M58,30H50V27a1,1,0,0,0-1-1H38v2H48v3a1,1,0,0,0,1,1h1v2h2V32h2v2h2V32h2Z" transform="translate(-2 -2)"/>
    <path d="M45,44h5V42H46V39a1,1,0,0,0-1-1H36V35a1,1,0,0,0-1-1H32V32h6V30H32V26H30v9a1,1,0,0,0,1,1h3v3a1,1,0,0,0,1,1h5v4H36V43a1,1,0,0,0-1-1H31a1,1,0,0,0-1,1v1H28V38H26v7a1,1,0,0,0,1,1h3v2H26v2h4v6H26v2h5a1,1,0,0,0,1-1V44h2v1a1,1,0,0,0,1,1h6a1,1,0,0,0,1-1V40h2v3A1,1,0,0,0,45,44Z" transform="translate(-2 -2)"/>
    <path d="M58,36H49a1,1,0,0,0-1,1v3h2V38h8Z" transform="translate(-2 -2)"/>
    <path d="M38,36h7a1,1,0,0,0,1-1V30H44v4H38Z" transform="translate(-2 -2)"/>
    <rect x="44" y="48" width="2" height="4"/>
    <path d="M54,56v2h3a1,1,0,0,0,1-1V48H56v3H54v2h2v3Z" transform="translate(-2 -2)"/>
  </g>
</svg>
